<svg width="17" height="16" viewBox="0 0 17 16" fill="none" xmlns="http://www.w3.org/2000/svg">
<path d="M15.5 1L16.0515 1.23635C16.1481 1.01085 16.0977 0.749219 15.9243 0.575736C15.7508 0.402252 15.4892 0.351868 15.2636 0.448513L15.5 1ZM1.5 7L1.26365 6.44851C1.05655 6.53727 0.916634 6.73457 0.901377 6.95937C0.88612 7.18417 0.998094 7.39857 1.1913 7.5145L1.5 7ZM9.5 15L8.9855 15.3087C9.10143 15.5019 9.31583 15.6139 9.54063 15.5986C9.76543 15.5834 9.96273 15.4435 10.0515 15.2364L9.5 15ZM15.2636 0.448513L1.26365 6.44851L1.73635 7.55149L15.7364 1.55149L15.2636 0.448513ZM1.1913 7.5145L6.1913 10.5145L6.8087 9.4855L1.8087 6.4855L1.1913 7.5145ZM5.9855 10.3087L8.9855 15.3087L10.0145 14.6913L7.0145 9.6913L5.9855 10.3087ZM10.0515 15.2364L16.0515 1.23635L14.9485 0.763648L8.94851 14.7636L10.0515 15.2364ZM15.0757 0.575736L6.07574 9.57574L6.92426 10.4243L15.9243 1.42426L15.0757 0.575736Z" fill="#D2D1D4"/>
</svg>
