<svg width="17" height="16" viewBox="0 0 17 16" fill="none" xmlns="http://www.w3.org/2000/svg">
<path d="M6.5 1H2.5C1.94772 1 1.5 1.44772 1.5 2V6C1.5 6.55228 1.94772 7 2.5 7H6.5C7.05228 7 7.5 6.55228 7.5 6V2C7.5 1.44772 7.05228 1 6.5 1Z" stroke="#D2D1D4" stroke-width="1.2"/>
<path d="M14.5 1H10.5C9.94772 1 9.5 1.44772 9.5 2V6C9.5 6.55228 9.94772 7 10.5 7H14.5C15.0523 7 15.5 6.55228 15.5 6V2C15.5 1.44772 15.0523 1 14.5 1Z" stroke="#D2D1D4" stroke-width="1.2"/>
<path d="M14.5 9H10.5C9.94772 9 9.5 9.44772 9.5 10V14C9.5 14.5523 9.94772 15 10.5 15H14.5C15.0523 15 15.5 14.5523 15.5 14V10C15.5 9.44772 15.0523 9 14.5 9Z" stroke="#D2D1D4" stroke-width="1.2"/>
<path d="M6.5 9H2.5C1.94772 9 1.5 9.44772 1.5 10V14C1.5 14.5523 1.94772 15 2.5 15H6.5C7.05228 15 7.5 14.5523 7.5 14V10C7.5 9.44772 7.05228 9 6.5 9Z" stroke="#D2D1D4" stroke-width="1.2"/>
</svg>
