<svg width="17" height="16" viewBox="0 0 17 16" fill="none" xmlns="http://www.w3.org/2000/svg">
<path d="M8.5 1L8.89047 0.544446C8.66578 0.351851 8.33422 0.351851 8.10953 0.544446L8.5 1ZM1.5 7L1.10953 6.54445L0.9 6.72404V7H1.5ZM6.5 15V15.6C6.83137 15.6 7.1 15.3314 7.1 15H6.5ZM10.5 15H9.9C9.9 15.3314 10.1686 15.6 10.5 15.6V15ZM15.5 7H16.1V6.72404L15.8905 6.54445L15.5 7ZM2.5 15.6H6.5V14.4H2.5V15.6ZM15.8905 6.54445L8.89047 0.544446L8.10953 1.45555L15.1095 7.45555L15.8905 6.54445ZM8.10953 0.544446L1.10953 6.54445L1.89047 7.45555L8.89047 1.45555L8.10953 0.544446ZM7.1 15V12H5.9V15H7.1ZM9.9 12V15H11.1V12H9.9ZM10.5 15.6H14.5V14.4H10.5V15.6ZM16.1 14V7H14.9V14H16.1ZM0.9 7V14H2.1V7H0.9ZM8.5 10.6C9.2732 10.6 9.9 11.2268 9.9 12H11.1C11.1 10.5641 9.93594 9.4 8.5 9.4V10.6ZM8.5 9.4C7.06406 9.4 5.9 10.5641 5.9 12H7.1C7.1 11.2268 7.7268 10.6 8.5 10.6V9.4ZM14.5 15.6C15.3837 15.6 16.1 14.8837 16.1 14H14.9C14.9 14.2209 14.7209 14.4 14.5 14.4V15.6ZM2.5 14.4C2.27909 14.4 2.1 14.2209 2.1 14H0.9C0.9 14.8837 1.61634 15.6 2.5 15.6V14.4Z" fill="#4D77FF"/>
</svg>
