<svg width="17" height="16" viewBox="0 0 17 16" fill="none" xmlns="http://www.w3.org/2000/svg">
<path fill-rule="evenodd" clip-rule="evenodd" d="M6.944 1L6.858 1.43671L6.52901 3.03467C6.00301 3.23554 5.526 3.52037 5.095 3.85815L3.487 3.3205L3.05501 3.18658L2.83101 3.57233L1.724 5.4231L1.5 5.8089L1.828 6.0957L3.07201 7.15399C3.02701 7.43081 2.96901 7.70461 2.96901 7.99542C2.96901 8.28623 3.02701 8.5601 3.07201 8.83691L1.828 9.8952L1.5 10.182L1.724 10.5677L2.83101 12.4186L3.05501 12.8053L3.487 12.6704L5.095 12.1328C5.526 12.4705 6.00301 12.7553 6.52901 12.9562L6.858 14.5541L6.944 14.9909H10.055L10.142 14.5541L10.47 12.9562C10.996 12.7553 11.473 12.4705 11.904 12.1328L13.512 12.6704L13.944 12.8053L14.169 12.4186L15.275 10.5677L15.5 10.182L15.171 9.8952L13.927 8.83691C13.973 8.5601 14.03 8.28623 14.03 7.99542C14.03 7.70461 13.973 7.43081 13.927 7.15399L15.171 6.0957L15.5 5.8089L15.275 5.4231L14.169 3.57233L13.944 3.18658L13.512 3.3205L11.904 3.85815C11.473 3.52037 10.996 3.23554 10.47 3.03467L10.142 1.43671L10.055 1H6.944Z" stroke="#D2D1D4" stroke-width="1.2" stroke-linecap="square" stroke-linejoin="round"/>
<path fill-rule="evenodd" clip-rule="evenodd" d="M10.4996 7.99542C10.4996 9.0987 9.60363 9.99414 8.49963 9.99414C7.39563 9.99414 6.49963 9.0987 6.49963 7.99542C6.49963 6.89214 7.39563 5.99677 8.49963 5.99677C9.60363 5.99677 10.4996 6.89214 10.4996 7.99542Z" stroke="#D2D1D4" stroke-width="1.2" stroke-linecap="square" stroke-linejoin="round"/>
</svg>
